<?xml version="1.0" standalone="no"?>
<!DOCTYPE svg PUBLIC "-//W3C//DTD SVG 20010904//EN"
 "http://www.w3.org/TR/2001/REC-SVG-20010904/DTD/svg10.dtd">
<svg version="1.0" xmlns="http://www.w3.org/2000/svg"
 width="600.000000pt" height="600.000000pt" viewBox="0 0 600.000000 600.000000"
 preserveAspectRatio="xMidYMid meet">
<metadata>
Created by potrace 1.14, written by Peter Selinger 2001-2017
</metadata>
<g transform="translate(0.000000,600.000000) scale(0.100000,-0.100000)"
fill="#000000" stroke="none">
<path d="M0 3000 l0 -3000 3000 0 3000 0 0 3000 0 3000 -3000 0 -3000 0 0
-3000z m2564 859 c182 -36 313 -104 431 -223 44 -45 95 -107 114 -138 63 -108
111 -282 111 -403 l0 -50 -155 3 -154 3 -6 32 c-21 131 -29 168 -52 231 -53
147 -156 286 -268 361 -119 79 -275 114 -416 95 -238 -33 -386 -175 -451 -435
-18 -75 -22 -119 -23 -257 l0 -168 -30 -6 c-16 -3 -81 -22 -144 -41 -83 -25
-116 -31 -121 -22 -15 24 -21 168 -10 255 26 214 98 376 231 518 213 228 565
319 943 245z m1293 -41 c13 -27 96 -231 185 -455 88 -225 162 -413 165 -420 3
-7 -2 -10 -15 -6 -10 2 -76 14 -147 27 l-127 22 -81 212 c-44 117 -84 209 -88
205 -4 -4 -39 -91 -78 -192 -38 -101 -71 -185 -73 -186 -2 -2 -36 -1 -76 2
-48 4 -71 10 -68 17 2 6 70 176 149 377 80 201 154 384 166 408 29 57 56 53
88 -11z m-422 -888 c289 -21 551 -56 758 -102 l99 -22 -7 -43 c-6 -38 -4 -43
13 -43 16 0 21 -9 25 -42 2 -24 14 -68 26 -98 13 -35 16 -48 7 -36 -9 10 -17
23 -19 29 -2 6 -9 7 -16 3 -9 -6 -9 -11 1 -23 9 -12 12 -49 10 -137 -3 -137
-17 -216 -38 -216 -8 0 -14 -9 -14 -20 0 -14 -7 -20 -22 -21 l-23 -2 23 -4
c33 -7 28 -33 -7 -33 -38 0 -91 11 -91 19 0 3 10 11 23 16 12 6 23 19 25 30 2
16 -169 490 -182 502 -3 4 -306 29 -442 37 -81 5 -93 4 -99 -12 -63 -157 -158
-427 -162 -462 -8 -67 14 -90 95 -97 39 -4 61 -10 59 -17 -5 -15 -566 -21
-581 -6 -16 16 7 26 66 29 63 3 119 30 154 76 15 19 68 138 119 264 l93 229
-37 6 c-20 3 -52 6 -72 6 -35 0 -35 -1 -68 -81 -46 -112 -117 -214 -210 -301
-93 -87 -162 -130 -281 -174 -172 -65 -388 -82 -578 -45 -108 21 -248 73 -245
90 2 6 -3 8 -10 5 -7 -2 -21 3 -32 12 -11 8 -14 13 -7 9 17 -9 15 0 -5 16 -11
10 -14 10 -9 2 4 -7 4 -13 1 -13 -12 0 -90 58 -110 81 l-20 24 20 -17 c20 -17
20 -16 17 134 -3 144 -2 150 19 169 22 19 22 20 4 33 -18 13 -18 14 3 27 25
16 29 37 7 45 -8 4 -15 12 -15 20 0 17 -24 18 -51 4 -11 -6 -19 -7 -19 -1 0 5
50 21 111 35 220 51 530 96 804 115 174 12 727 13 890 1z m1289 -349 c3 -4 -6
-6 -19 -3 -14 2 -25 6 -25 8 0 8 39 4 44 -5z m-340 -76 c3 -8 1 -15 -4 -15 -6
0 -10 7 -10 15 0 8 2 15 4 15 2 0 6 -7 10 -15z"/>
<path d="M2525 2729 c-202 -9 -464 -29 -653 -51 l-104 -12 6 -27 c3 -15 2 -29
-2 -32 -4 -2 -2 -3 4 -1 6 1 22 -16 34 -39 65 -117 166 -214 282 -273 171 -86
394 -87 540 -1 69 40 151 134 191 217 33 70 67 178 67 214 0 18 -27 19 -365 5z"/>
<path d="M4220 2189 c0 -11 5 -17 10 -14 6 3 10 13 10 21 0 8 -4 14 -10 14 -5
0 -10 -9 -10 -21z"/>
</g>
</svg>
